# Blender v2.91.0 OBJ File: 'Terrain.blend'
# www.blender.org
mtllib Ext Build 5.mtl
o Exterior_Building_5_Plane.006
v -14.300001 0.000000 18.000000
v 15.300001 0.000000 18.000000
v -14.300001 0.000000 -18.000000
v 15.300001 0.000000 -18.000000
v -12.800001 0.000000 -4.290506
v -12.800001 0.000000 4.290506
v 15.300001 0.000000 4.290506
v 15.300001 0.000000 -4.290506
v -15.300001 0.000000 16.799999
v 15.300001 0.000000 16.799999
v 15.300001 0.000000 -16.799999
v -15.300001 0.000000 -16.799999
v 15.300001 0.000000 7.417880
v -15.300001 0.000000 7.417880
v -15.300001 0.000000 -7.417880
v 15.300001 0.000000 -7.417880
v -15.300001 4.000000 16.799999
v -14.300001 4.000000 18.000000
v 15.300001 4.000000 18.000000
v 15.300001 4.000000 -16.799999
v 15.300001 4.000000 -18.000000
v -14.300001 4.000000 -18.000000
v -15.300001 4.000000 -7.417880
v -12.800001 4.000000 -4.290506
v -12.800001 4.000000 4.290506
v 15.300001 4.000000 7.417880
v 15.300001 4.000000 4.290506
v 15.300001 4.000000 -4.290506
v -15.300001 4.000000 7.417880
v 15.300001 4.000000 16.799999
v 15.300001 4.000000 -7.417880
v -15.300001 4.000000 -16.799999
v -15.300001 5.000000 16.799999
v -14.300001 5.000000 18.000000
v 15.300001 5.000000 18.000000
v 15.300001 5.000000 -16.799999
v 15.300001 5.000000 -18.000000
v -14.300001 5.000000 -18.000000
v -15.300001 5.000000 -7.417880
v -12.800001 5.000000 -4.290506
v -12.800001 5.000000 4.290506
v 15.300001 5.000000 7.417880
v 15.300001 5.000000 4.290506
v 15.300001 5.000000 -4.290506
v -15.300001 5.000000 7.417880
v 15.300001 5.000000 16.799999
v 15.300001 5.000000 -7.417880
v -15.300001 5.000000 -16.799999
v -12.799999 0.050000 -2.252516
v -12.799999 0.050000 2.252516
v -12.799999 3.050000 -2.252516
v -12.799999 3.050000 2.252516
v -12.699999 0.050000 -2.252516
v -12.699999 0.050000 2.252516
v -12.699999 3.050000 -2.252516
v -12.699999 3.050000 2.252516
v -15.300001 0.200000 7.675889
v -15.300001 0.200000 16.541992
v -15.300001 0.200000 -16.541992
v -15.300001 0.200000 -7.675889
v -15.300001 3.800000 7.675889
v -15.300001 3.800000 16.541992
v -15.300001 3.800000 -16.541992
v -15.300001 3.800000 -7.675889
v -15.200001 0.200000 7.675889
v -15.200001 0.200000 16.541992
v -15.200001 0.200000 -16.541992
v -15.200001 0.200000 -7.675889
v -15.200001 3.800000 7.675889
v -15.200001 3.800000 16.541992
v -15.200001 3.800000 -16.541992
v -15.200001 3.800000 -7.675889
vt 0.250000 0.706052
vt 0.208333 0.966667
vt 0.250000 0.966667
vt 0.666667 0.000000
vt 0.625000 0.822222
vt 0.666667 0.822222
vt 0.166667 1.000000
vt 0.208333 0.966667
vt 0.166667 0.966667
vt 0.250000 0.380819
vt 0.208333 0.619181
vt 0.250000 0.619181
vt 0.166667 0.033334
vt 0.208333 0.000000
vt 0.166667 0.000000
vt 0.208333 0.706052
vt 0.250000 0.033334
vt 0.208333 0.293948
vt 0.250000 0.293948
vt 0.416667 0.033334
vt 0.416667 0.293948
vt 0.416667 0.619181
vt 0.416667 0.706052
vt 0.000000 0.033334
vt 0.000000 0.000000
vt 0.416667 0.380819
vt 0.000000 1.000000
vt 0.000000 0.966667
vt 0.833333 0.000000
vt 0.833333 0.822222
vt 0.416667 0.966667
vt 0.416667 0.000000
vt 0.000000 0.706052
vt 0.166667 0.619181
vt 0.000000 0.619181
vt 0.008333 0.713219
vt 0.625000 0.000000
vt 0.458333 0.822223
vt 0.625000 0.822223
vt 0.250000 1.000000
vt 0.416667 1.000000
vt 0.000000 0.380819
vt 0.166667 0.293948
vt 0.000000 0.293948
vt 0.158333 0.713219
vt 0.166667 0.706052
vt 0.002083 0.562570
vt 0.002083 0.437430
vt 0.789251 0.192523
vt 0.283326 0.172012
vt 0.266234 0.192523
vt 0.789250 0.606456
vt 0.308964 0.553002
vt 0.266234 0.606455
vt 0.789250 0.553002
vt 0.308964 0.406335
vt 0.283326 0.787326
vt 0.789250 0.766815
vt 0.266234 0.766815
vt 0.789250 0.352882
vt 0.266234 0.352882
vt 0.250000 0.000000
vt 0.208333 0.033334
vt 0.208333 0.619181
vt 0.208333 0.706052
vt 0.458333 0.000000
vt 0.416667 0.822223
vt 0.208333 1.000000
vt 0.166667 0.380819
vt 0.208333 0.293948
vt 0.208333 0.033334
vt 0.208333 0.380819
vt 0.208333 0.380819
vt 0.852777 0.617561
vt 0.855556 0.492561
vt 0.852777 0.492561
vt 0.127083 0.562570
vt 0.127083 0.437430
vt 0.541737 0.947292
vt 0.416597 0.822292
vt 0.416597 0.947292
vt 0.850000 0.617701
vt 0.852778 0.492561
vt 0.850000 0.492561
vt 0.855556 0.617701
vt 0.852778 0.742701
vt 0.855556 0.742701
vt 0.852778 0.617701
vt 0.850000 0.742841
vt 0.852778 0.742841
vt 0.838889 0.738842
vt 0.841667 0.492561
vt 0.838889 0.492561
vt 0.844445 0.492561
vt 0.841667 0.738842
vt 0.844445 0.738842
vt 0.158333 0.959499
vt 0.008333 0.959499
vt 0.008333 0.040501
vt 0.158333 0.286781
vt 0.008333 0.286781
vt 0.158333 0.040501
vt 0.833333 0.246281
vt 0.983333 0.000000
vt 0.833333 0.000000
vt 0.833333 0.492561
vt 0.983333 0.246281
vt 0.833333 0.246281
vt 0.847222 0.642561
vt 0.844444 0.792561
vt 0.847222 0.792561
vt 0.850000 0.492561
vt 0.847222 0.642561
vt 0.850000 0.642561
vt 0.838889 0.492561
vt 0.836111 0.738842
vt 0.838889 0.738842
vt 0.833333 0.738842
vt 0.836111 0.492561
vt 0.833333 0.492561
vt 0.847222 0.792561
vt 0.850000 0.642561
vt 0.847222 0.642561
vt 0.844444 0.642561
vt 0.847222 0.492561
vt 0.844444 0.492561
vt 0.625000 0.000000
vt 0.208333 1.000000
vt 0.789251 0.172012
vt 0.789250 0.406336
vt 0.789250 0.787326
vt 0.208333 0.000000
vt 0.416667 0.000000
vt 0.855556 0.617561
vt 0.541737 0.822292
vt 0.852778 0.617701
vt 0.852778 0.617701
vt 0.850000 0.617701
vt 0.841667 0.738842
vt 0.841667 0.492561
vt 0.983333 0.246281
vt 0.983333 0.492561
vt 0.844444 0.642561
vt 0.847222 0.492561
vt 0.836111 0.492561
vt 0.836111 0.738842
vt 0.850000 0.792561
vt 0.847222 0.642561
vn 1.0000 0.0000 0.0000
vn 0.0000 0.0000 1.0000
vn -0.7682 0.0000 0.6402
vn -0.7682 0.0000 -0.6402
vn -0.7811 0.0000 -0.6244
vn -1.0000 -0.0000 0.0000
vn 0.0000 0.0000 -1.0000
vn -0.7811 0.0000 0.6244
vn 0.0000 1.0000 0.0000
vn 0.0000 -1.0000 0.0000
usemtl ExtBui5
s off
f 26/1/1 46/2/1 30/3/1
f 19/4/2 34/5/2 18/6/2
f 18/7/3 33/8/3 17/9/3
f 28/10/1 43/11/1 27/12/1
f 32/13/4 38/14/4 22/15/4
f 27/12/1 42/16/1 26/1/1
f 20/17/1 47/18/1 31/19/1
f 11/20/1 31/19/1 16/21/1
f 7/22/1 26/1/1 13/23/1
f 12/24/4 22/15/4 3/25/4
f 8/26/1 27/12/1 7/22/1
f 1/27/3 17/9/3 9/28/3
f 2/29/2 18/6/2 1/30/2
f 13/23/1 30/3/1 10/31/1
f 4/32/1 20/17/1 11/20/1
f 14/33/5 25/34/5 6/35/5
f 9/28/6 57/36/6 14/33/6
f 3/37/7 21/38/7 4/39/7
f 10/31/1 19/40/1 2/41/1
f 5/42/8 23/43/8 15/44/8
f 14/33/6 61/45/6 29/46/6
f 5/42/6 50/47/6 49/48/6
f 16/21/1 28/10/1 8/26/1
f 36/49/9 38/50/9 48/51/9
f 42/52/9 41/53/9 45/54/9
f 43/55/9 40/56/9 41/53/9
f 34/57/9 46/58/9 33/59/9
f 47/60/9 48/51/9 39/61/9
f 46/58/9 45/54/9 33/59/9
f 40/56/9 47/60/9 39/61/9
f 21/62/1 36/63/1 20/17/1
f 29/46/5 41/64/5 25/34/5
f 17/9/6 45/65/6 29/46/6
f 22/66/7 37/67/7 21/38/7
f 30/3/1 35/68/1 19/40/1
f 24/69/8 39/70/8 23/43/8
f 23/43/6 48/71/6 32/13/6
f 25/34/6 40/72/6 24/69/6
f 31/19/1 44/73/1 28/10/1
f 52/74/7 54/75/7 50/76/7
f 24/69/6 52/77/6 25/34/6
f 5/42/6 51/78/6 24/69/6
f 6/35/6 52/77/6 50/47/6
f 54/79/6 55/80/6 53/81/6
f 50/82/9 53/83/9 49/84/9
f 49/85/2 55/86/2 51/87/2
f 51/88/10 56/89/10 52/90/10
f 60/91/9 67/92/9 59/93/9
f 63/94/10 72/95/10 64/96/10
f 29/46/6 62/97/6 17/9/6
f 17/9/6 58/98/6 9/28/6
f 15/44/6 59/99/6 12/24/6
f 32/13/6 64/100/6 23/43/6
f 23/43/6 60/101/6 15/44/6
f 12/24/6 63/102/6 32/13/6
f 66/103/6 69/104/6 65/105/6
f 68/106/6 71/107/6 67/108/6
f 57/109/2 69/110/2 61/111/2
f 59/112/2 71/113/2 63/114/2
f 61/115/10 70/116/10 62/117/10
f 58/118/9 65/119/9 57/120/9
f 64/121/7 68/122/7 60/123/7
f 62/124/7 66/125/7 58/126/7
f 26/1/1 42/16/1 46/2/1
f 19/4/2 35/127/2 34/5/2
f 18/7/3 34/128/3 33/8/3
f 28/10/1 44/73/1 43/11/1
f 32/13/4 48/71/4 38/14/4
f 27/12/1 43/11/1 42/16/1
f 20/17/1 36/63/1 47/18/1
f 11/20/1 20/17/1 31/19/1
f 7/22/1 27/12/1 26/1/1
f 12/24/4 32/13/4 22/15/4
f 8/26/1 28/10/1 27/12/1
f 1/27/3 18/7/3 17/9/3
f 2/29/2 19/4/2 18/6/2
f 13/23/1 26/1/1 30/3/1
f 4/32/1 21/62/1 20/17/1
f 14/33/5 29/46/5 25/34/5
f 9/28/6 58/98/6 57/36/6
f 3/37/7 22/66/7 21/38/7
f 10/31/1 30/3/1 19/40/1
f 5/42/8 24/69/8 23/43/8
f 14/33/6 57/36/6 61/45/6
f 5/42/6 6/35/6 50/47/6
f 16/21/1 31/19/1 28/10/1
f 36/49/9 37/129/9 38/50/9
f 42/52/9 43/55/9 41/53/9
f 43/55/9 44/130/9 40/56/9
f 34/57/9 35/131/9 46/58/9
f 47/60/9 36/49/9 48/51/9
f 46/58/9 42/52/9 45/54/9
f 40/56/9 44/130/9 47/60/9
f 21/62/1 37/132/1 36/63/1
f 29/46/5 45/65/5 41/64/5
f 17/9/6 33/8/6 45/65/6
f 22/66/7 38/133/7 37/67/7
f 30/3/1 46/2/1 35/68/1
f 24/69/8 40/72/8 39/70/8
f 23/43/6 39/70/6 48/71/6
f 25/34/6 41/64/6 40/72/6
f 31/19/1 47/18/1 44/73/1
f 52/74/7 56/134/7 54/75/7
f 24/69/6 51/78/6 52/77/6
f 5/42/6 49/48/6 51/78/6
f 6/35/6 25/34/6 52/77/6
f 54/79/6 56/135/6 55/80/6
f 50/82/9 54/136/9 53/83/9
f 49/85/2 53/137/2 55/86/2
f 51/88/10 55/138/10 56/89/10
f 60/91/9 68/139/9 67/92/9
f 63/94/10 71/140/10 72/95/10
f 29/46/6 61/45/6 62/97/6
f 17/9/6 62/97/6 58/98/6
f 15/44/6 60/101/6 59/99/6
f 32/13/6 63/102/6 64/100/6
f 23/43/6 64/100/6 60/101/6
f 12/24/6 59/99/6 63/102/6
f 66/103/6 70/141/6 69/104/6
f 68/106/6 72/142/6 71/107/6
f 57/109/2 65/143/2 69/110/2
f 59/112/2 67/144/2 71/113/2
f 61/115/10 69/145/10 70/116/10
f 58/118/9 66/146/9 65/119/9
f 64/121/7 72/147/7 68/122/7
f 62/124/7 70/148/7 66/125/7
