# Blender v2.91.0 OBJ File: 'Terrain.blend'
# www.blender.org
mtllib Stop Sign.mtl
o Stop_Sign_Cylinder
v 0.000000 -1.500000 -0.075000
v 0.000000 1.500000 -0.075000
v 0.014632 -1.500000 -0.073559
v 0.014632 1.500000 -0.073559
v 0.028701 -1.500000 -0.069291
v 0.028701 1.500000 -0.069291
v 0.041668 -1.500000 -0.062360
v 0.041668 1.500000 -0.062360
v 0.053033 -1.500000 -0.053033
v 0.053033 1.500000 -0.053033
v 0.062360 -1.500000 -0.041668
v 0.062360 1.500000 -0.041668
v 0.069291 -1.500000 -0.028701
v 0.069291 1.500000 -0.028701
v 0.073559 -1.500000 -0.014632
v 0.073559 1.500000 -0.014632
v 0.075000 -1.500000 -0.000000
v 0.075000 1.500000 -0.000000
v 0.073559 -1.500000 0.014632
v 0.073559 1.500000 0.014632
v 0.069291 -1.500000 0.028701
v 0.069291 1.500000 0.028701
v 0.062360 -1.500000 0.041668
v 0.062360 1.500000 0.041668
v 0.053033 -1.500000 0.053033
v 0.053033 1.500000 0.053033
v 0.041668 -1.500000 0.062360
v 0.041668 1.500000 0.062360
v 0.028701 -1.500000 0.069291
v 0.028701 1.500000 0.069291
v 0.014632 -1.500000 0.073559
v 0.014632 1.500000 0.073559
v -0.000000 -1.500000 0.075000
v -0.000000 1.500000 0.075000
v -0.014632 -1.500000 0.073559
v -0.014632 1.500000 0.073559
v -0.028701 -1.500000 0.069291
v -0.028701 1.500000 0.069291
v -0.041668 -1.500000 0.062360
v -0.041668 1.500000 0.062360
v -0.053033 -1.500000 0.053033
v -0.053033 1.500000 0.053033
v -0.062360 -1.500000 0.041668
v -0.062360 1.500000 0.041668
v -0.069291 -1.500000 0.028701
v -0.069291 1.500000 0.028701
v -0.073559 -1.500000 0.014632
v -0.073559 1.500000 0.014632
v -0.075000 -1.500000 -0.000000
v -0.075000 1.500000 -0.000000
v -0.073559 -1.500000 -0.014632
v -0.073559 1.500000 -0.014632
v -0.069291 -1.500000 -0.028701
v -0.069291 1.500000 -0.028701
v -0.062360 -1.500000 -0.041668
v -0.062360 1.500000 -0.041668
v -0.053033 -1.500000 -0.053033
v -0.053033 1.500000 -0.053033
v -0.041668 -1.500000 -0.062360
v -0.041668 1.500000 -0.062360
v -0.028701 -1.500000 -0.069291
v -0.028701 1.500000 -0.069291
v -0.014632 -1.500000 -0.073559
v -0.014632 1.500000 -0.073559
v 0.079996 1.504999 -0.175005
v 0.079996 1.504999 0.174995
v 0.079996 0.454999 0.174995
v 0.079996 0.454999 -0.175005
v 0.129996 1.504999 -0.175005
v 0.129996 1.504999 0.174995
v 0.129996 0.454999 0.174995
v 0.129996 0.454999 -0.175005
v 0.079996 1.154999 0.524995
v 0.079996 0.804999 0.524995
v 0.079996 0.804999 -0.525005
v 0.079996 1.154999 -0.525005
v 0.129996 1.154999 0.524995
v 0.129996 0.804999 0.524995
v 0.129996 0.804999 -0.525005
v 0.129996 1.154999 -0.525005
v 0.129996 0.804999 0.174995
v 0.129996 1.154999 0.174995
v 0.129996 0.804999 -0.175005
v 0.129996 1.154999 -0.175005
v 0.079996 1.154999 0.174995
v 0.079996 0.804999 0.174995
v 0.079996 1.154999 -0.175005
v 0.079996 0.804999 -0.175005
vt 0.631498 0.415374
vt 1.072072 -0.019438
vt 1.069190 -0.022319
vt 0.634379 0.418255
vt 1.074522 -0.016987
vt 0.636829 0.420706
vt 1.077404 -0.014106
vt 0.639711 0.423587
vt 1.080605 -0.010904
vt 0.642913 0.426789
vt 1.084004 -0.007505
vt 0.646311 0.430187
vt 1.087470 -0.004040
vt 0.649777 0.433653
vt 1.090868 -0.000641
vt 0.653176 0.437052
vt 1.094070 0.002561
vt 0.656377 0.440253
vt 1.096951 0.005442
vt 0.559740 0.343616
vt 0.999883 -0.091626
vt 0.997433 -0.094077
vt 0.562190 0.346067
vt 1.002765 -0.088745
vt 0.565072 0.348948
vt 1.005966 -0.085543
vt 0.568273 0.352150
vt 1.009365 -0.082144
vt 0.571672 0.355548
vt 1.012830 -0.078679
vt 0.575138 0.359014
vt 1.016229 -0.075280
vt 0.578537 0.362413
vt 1.019431 -0.072078
vt 0.581738 0.365614
vt 1.022312 -0.069197
vt 0.584620 0.368496
vt 1.024763 -0.066747
vt 0.587070 0.370946
vt 1.027644 -0.063865
vt 0.589952 0.373828
vt 1.030846 -0.060663
vt 0.593153 0.377029
vt 1.034245 -0.057265
vt 0.596552 0.380428
vt 1.037710 -0.053799
vt 0.600017 0.383893
vt 1.041109 -0.050400
vt 0.603416 0.387292
vt 1.044311 -0.047199
vt 0.606618 0.390494
vt 1.047192 -0.044317
vt 0.609499 0.393375
vt 1.049643 -0.041867
vt 0.611950 0.395826
vt 1.052524 -0.038985
vt 0.614831 0.398707
vt 1.055726 -0.035784
vt 0.618033 0.401909
vt 1.059124 -0.032385
vt 0.621432 0.405308
vt 1.062590 -0.028919
vt 0.303371 0.970311
vt 0.405520 0.939324
vt 0.374534 0.837175
vt 0.624897 0.408773
vt 1.065989 -0.025521
vt 0.628296 0.412172
vt 0.644033 0.811045
vt 0.467257 0.811045
vt 0.644033 0.987821
vt 0.360323 0.184073
vt 0.360323 0.007296
vt 0.537100 0.184073
vt 0.277519 0.705609
vt 0.420376 0.598466
vt 0.402519 0.580609
vt 0.152519 0.830609
vt 0.009662 0.937752
vt 0.027519 0.955609
vt 0.402519 0.580609
vt 0.259662 0.687752
vt 0.277519 0.705609
vt 0.295376 0.723466
vt 0.438233 0.616323
vt 0.420376 0.598466
vt 0.313233 0.741323
vt 0.170376 0.848466
vt 0.188233 0.866323
vt 0.006770 0.184073
vt 0.183547 0.007296
vt 0.183547 0.184073
vt 0.997587 0.811045
vt 0.820810 0.811045
vt 0.820810 0.987821
vt 0.644033 0.457491
vt 0.820810 0.634268
vt 0.820810 0.457491
vt 0.644033 0.634268
vt 0.997587 0.634268
vt 0.183547 0.360849
vt 0.360323 0.537626
vt 0.183547 0.537626
vt 0.360323 0.360849
vt 0.006770 0.360849
vt 0.134662 0.812752
vt 0.152519 0.830609
vt 0.295376 0.723466
vt 0.537100 0.360849
vt 0.467257 0.634268
vt 0.027519 0.955609
vt 0.170376 0.848466
vt 0.659259 0.443135
vt 0.272385 0.868161
vt 0.266722 0.881832
vt 0.263835 0.896344
vt 0.263835 0.911141
vt 0.266722 0.925653
vt 0.272385 0.939324
vt 0.280605 0.951627
vt 0.291068 0.962090
vt 0.317042 0.975973
vt 0.331554 0.978860
vt 0.346351 0.978860
vt 0.360863 0.975973
vt 0.374534 0.970311
vt 0.386837 0.962090
vt 0.397300 0.951627
vt 0.411183 0.925653
vt 0.411183 0.881832
vt 0.414070 0.911141
vt 0.414070 0.896344
vt 0.405520 0.868161
vt 0.397300 0.855858
vt 0.386837 0.845395
vt 0.360863 0.831512
vt 0.346351 0.828626
vt 0.331554 0.828626
vt 0.317042 0.831512
vt 0.303371 0.837175
vt 0.291068 0.845395
vt 0.280605 0.855858
vt 0.384662 0.562752
vt 0.313233 0.741323
vt 0.295376 0.723466
vt 0.045376 0.973466
vn 0.0980 0.0000 -0.9952
vn 0.2903 0.0000 -0.9569
vn 0.4714 0.0000 -0.8819
vn 0.6344 0.0000 -0.7730
vn 0.7730 0.0000 -0.6344
vn 0.8819 0.0000 -0.4714
vn 0.9569 0.0000 -0.2903
vn 0.9952 0.0000 -0.0980
vn 0.9952 0.0000 0.0980
vn 0.9569 0.0000 0.2903
vn 0.8819 0.0000 0.4714
vn 0.7730 0.0000 0.6344
vn 0.6344 0.0000 0.7730
vn 0.4714 0.0000 0.8819
vn 0.2903 0.0000 0.9569
vn 0.0980 0.0000 0.9952
vn -0.0980 0.0000 0.9952
vn -0.2903 0.0000 0.9569
vn -0.4714 0.0000 0.8819
vn -0.6344 0.0000 0.7730
vn -0.7730 0.0000 0.6344
vn -0.8819 0.0000 0.4714
vn -0.9569 0.0000 0.2903
vn -0.9952 0.0000 0.0980
vn -0.9952 0.0000 -0.0980
vn -0.9569 0.0000 -0.2903
vn -0.8819 0.0000 -0.4714
vn -0.7730 0.0000 -0.6344
vn -0.6344 0.0000 -0.7730
vn -0.4714 0.0000 -0.8819
vn 0.0000 1.0000 0.0000
vn -0.2903 0.0000 -0.9569
vn -0.0980 0.0000 -0.9952
vn -1.0000 0.0000 0.0000
vn 1.0000 0.0000 0.0000
vn 0.0000 -0.7071 -0.7071
vn 0.0000 0.7071 0.7071
vn 0.0000 -0.7071 0.7071
vn 0.0000 -1.0000 0.0000
vn 0.0000 0.0000 1.0000
vn 0.0000 0.0000 -1.0000
vn 0.0000 0.7071 -0.7071
vn 0.0000 1.0000 -0.0001
usemtl Stop_Sign
s off
f 2/1/1 3/2/1 1/3/1
f 4/4/2 5/5/2 3/2/2
f 6/6/3 7/7/3 5/5/3
f 8/8/4 9/9/4 7/7/4
f 10/10/5 11/11/5 9/9/5
f 12/12/6 13/13/6 11/11/6
f 14/14/7 15/15/7 13/13/7
f 16/16/8 17/17/8 15/15/8
f 18/18/9 19/19/9 17/17/9
f 20/20/10 21/21/10 19/22/10
f 22/23/11 23/24/11 21/21/11
f 24/25/12 25/26/12 23/24/12
f 26/27/13 27/28/13 25/26/13
f 28/29/14 29/30/14 27/28/14
f 30/31/15 31/32/15 29/30/15
f 32/33/16 33/34/16 31/32/16
f 34/35/17 35/36/17 33/34/17
f 36/37/18 37/38/18 35/36/18
f 38/39/19 39/40/19 37/38/19
f 40/41/20 41/42/20 39/40/20
f 42/43/21 43/44/21 41/42/21
f 44/45/22 45/46/22 43/44/22
f 46/47/23 47/48/23 45/46/23
f 48/49/24 49/50/24 47/48/24
f 50/51/25 51/52/25 49/50/25
f 52/53/26 53/54/26 51/52/26
f 54/55/27 55/56/27 53/54/27
f 56/57/28 57/58/28 55/56/28
f 58/59/29 59/60/29 57/58/29
f 60/61/30 61/62/30 59/60/30
f 54/63/31 38/64/31 22/65/31
f 62/66/32 63/67/32 61/62/32
f 64/68/33 1/3/33 63/67/33
f 88/69/34 75/70/34 68/71/34
f 83/72/35 72/73/35 79/74/35
f 75/75/36 72/76/36 68/77/36
f 73/78/37 70/79/37 66/80/37
f 67/81/38 78/82/38 74/83/38
f 66/84/31 69/85/31 65/86/31
f 68/87/39 71/88/39 67/89/39
f 78/90/35 71/91/35 81/92/35
f 71/91/35 83/72/35 81/92/35
f 74/93/34 86/94/34 67/95/34
f 88/69/34 67/95/34 86/94/34
f 65/96/34 85/97/34 66/98/34
f 87/99/34 86/94/34 85/97/34
f 66/98/34 85/97/34 73/100/34
f 85/97/34 74/93/34 73/100/34
f 82/101/35 69/102/35 70/103/35
f 81/92/35 84/104/35 82/101/35
f 70/103/35 77/105/35 82/101/35
f 78/90/35 82/101/35 77/105/35
f 74/83/40 77/106/40 73/78/40
f 76/107/41 79/108/41 75/75/41
f 69/102/35 84/104/35 80/109/35
f 83/72/35 80/109/35 84/104/35
f 65/96/34 76/110/34 87/99/34
f 76/110/34 88/69/34 87/99/34
f 65/111/42 80/112/42 76/107/42
f 2/1/1 4/4/1 3/2/1
f 4/4/2 6/6/2 5/5/2
f 6/6/3 8/8/3 7/7/3
f 8/8/4 10/10/4 9/9/4
f 10/10/5 12/12/5 11/11/5
f 12/12/6 14/14/6 13/13/6
f 14/14/7 16/16/7 15/15/7
f 16/16/8 18/18/8 17/17/8
f 18/18/9 20/113/9 19/19/9
f 20/20/10 22/23/10 21/21/10
f 22/23/11 24/25/11 23/24/11
f 24/25/12 26/27/12 25/26/12
f 26/27/13 28/29/13 27/28/13
f 28/29/14 30/31/14 29/30/14
f 30/31/15 32/33/15 31/32/15
f 32/33/16 34/35/16 33/34/16
f 34/35/17 36/37/17 35/36/17
f 36/37/18 38/39/18 37/38/18
f 38/39/19 40/41/19 39/40/19
f 40/41/20 42/43/20 41/42/20
f 42/43/21 44/45/21 43/44/21
f 44/45/22 46/47/22 45/46/22
f 46/47/23 48/49/23 47/48/23
f 48/49/24 50/51/24 49/50/24
f 50/51/25 52/53/25 51/52/25
f 52/53/26 54/55/26 53/54/26
f 54/55/27 56/57/27 55/56/27
f 56/57/28 58/59/28 57/58/28
f 58/59/29 60/61/29 59/60/29
f 60/61/30 62/66/30 61/62/30
f 6/114/31 4/115/31 2/116/31
f 2/116/31 64/117/31 6/114/31
f 64/117/43 62/118/43 6/114/43
f 62/118/31 60/119/31 58/120/31
f 58/120/31 56/121/31 54/63/31
f 54/63/31 52/122/31 50/123/31
f 50/123/31 48/124/31 46/125/31
f 46/125/31 44/126/31 42/127/31
f 42/127/31 40/128/31 46/125/31
f 40/128/31 38/64/31 46/125/31
f 38/64/31 36/129/31 30/130/31
f 36/129/31 34/131/31 30/130/31
f 34/131/31 32/132/31 30/130/31
f 30/130/31 28/133/31 26/134/31
f 26/134/31 24/135/31 22/65/31
f 22/65/31 20/136/31 18/137/31
f 18/137/31 16/138/31 22/65/31
f 16/138/31 14/139/31 22/65/31
f 14/139/31 12/140/31 10/141/31
f 10/141/31 8/142/31 6/114/31
f 62/118/31 58/120/31 6/114/31
f 58/120/31 54/63/31 6/114/31
f 54/63/31 50/123/31 38/64/31
f 50/123/31 46/125/31 38/64/31
f 30/130/31 26/134/31 38/64/31
f 26/134/31 22/65/31 38/64/31
f 14/139/31 10/141/31 6/114/31
f 22/65/31 14/139/31 6/114/31
f 6/114/31 54/63/31 22/65/31
f 62/66/32 64/68/32 63/67/32
f 64/68/33 2/1/33 1/3/33
f 75/75/36 79/108/36 72/76/36
f 73/78/37 77/106/37 70/79/37
f 67/81/38 71/143/38 78/82/38
f 66/84/31 70/144/31 69/85/31
f 68/87/39 72/145/39 71/88/39
f 71/91/35 72/73/35 83/72/35
f 88/69/34 68/71/34 67/95/34
f 65/96/34 87/99/34 85/97/34
f 87/99/34 88/69/34 86/94/34
f 85/97/34 86/94/34 74/93/34
f 82/101/35 84/104/35 69/102/35
f 81/92/35 83/72/35 84/104/35
f 78/90/35 81/92/35 82/101/35
f 74/83/40 78/82/40 77/106/40
f 76/107/41 80/112/41 79/108/41
f 83/72/35 79/74/35 80/109/35
f 76/110/34 75/70/34 88/69/34
f 65/111/42 69/146/42 80/112/42
